<svg xmlns="http://www.w3.org/2000/svg" viewBox="0 0 162.99 120.92"><defs><style>.cls-1{fill:#6abd45;opacity:0.22;}.cls-2,.cls-3,.cls-5{fill:#f69799;}.cls-11,.cls-12,.cls-13,.cls-2,.cls-5,.cls-6,.cls-7,.cls-8,.cls-9{stroke:#000;}.cls-10,.cls-11,.cls-12,.cls-13,.cls-2,.cls-5,.cls-6,.cls-7,.cls-8,.cls-9{stroke-miterlimit:10;}.cls-12,.cls-13,.cls-2,.cls-6,.cls-9{stroke-width:0.25px;}.cls-12,.cls-4{fill:#363795;}.cls-5{stroke-width:0.75px;}.cls-6{fill:#9f9fa3;}.cls-7{fill:#f26722;}.cls-7,.cls-8{stroke-width:0.5px;}.cls-8,.cls-9{fill:#f7ec13;}.cls-10{stroke:#231f20;}.cls-11{fill:#231f20;}.cls-13{fill:#ed185b;}</style></defs><title>man</title><g id="Layer_2" data-name="Layer 2"><g id="Layer_10" data-name="Layer 10"><path class="cls-1" d="M5.38,81a26.61,26.61,0,0,1,8-7.07c35.08-21,41.5-26,47.25-22.89,8.61,4.66.57,19.21,9,28.35,17.94,19.43,78-20.66,91-4.82,6.14,7.48-.69,24.4-9,33.43-12.35,13.4-31.37,13.08-44.72,12.86-21.22-.36-19.59-7.21-38.21-6.43-15.12.63-28.93,5.68-46,3.6a29.11,29.11,0,0,1-12.81-4.57c-2.2-1.46-7.55-5-9.32-11.57a20.27,20.27,0,0,1,0-9.32A27.52,27.52,0,0,1,5.38,81Z"/></g><g id="face"><path class="cls-2" d="M95.16,16.18a7.92,7.92,0,0,0-1.5,2.14,8.33,8.33,0,0,0-.51,5.36,6.31,6.31,0,0,1-.77,2.68c-.7,1.25-1.56,1.67-1.47,2.58a1.73,1.73,0,0,0,.83,1.27,2,2,0,0,0,1.64.15,2.85,2.85,0,0,0,1.25-.68,7.49,7.49,0,0,0-.43,4.18c.77,4,4.67,5.63,5,5.78a7.54,7.54,0,0,0,4-.53,7.7,7.7,0,0,0,2.68-1.93c2.73,3.06,5.84,6.36,6.32,6,.13-.1,0-.4-.11-.86-.63-2.45-.48-5.89.86-6.64.88-.49,2.07.28,2.14.11s-.5-.58-3.75-2.25A37,37,0,0,0,114,25.29c.34-2.39-.14-3-.52-3.28-1.17-.76-2.93,1.56-4.94,1-1.81-.48-1.9-2.75-3.43-4.5C103.76,17,101.05,15.58,95.16,16.18Z"/><ellipse class="cls-3" cx="126.99" cy="3.04" rx="3.54" ry="3.04"/><circle class="cls-4" cx="137.89" cy="3.72" r="3.29"/><path class="cls-5" d="M97.52,33.64A5.08,5.08,0,0,0,102.24,30"/></g><g id="hand"><path class="cls-2" d="M109.27,50.79c1.27-.35,10.2-2.75,11.18-.68.76,1.59-3.12,6.12-6.09,7.74a12,12,0,0,0-2.59,1.77c-1.22,1.12-1.43,1.8-2.14,2.44-1.66,1.52-4.34,1.26-5.57,1C98.43,61.87,93.11,57,91,56.7s-4.57,2.44-3.77,2.6,2.66.81,2.06,1.13-2.54,2.72-3.83-2.58q.32,2,0,2.1c-.22.07-.71-.63-1.44-2.1.09.49.29,1.66,0,1.77s-1.06-.69-1.07-1.51a4,4,0,0,1,.26-1.41c.14-.27.16-.42.1-.49-.25-.26-2.5,2.9-4,2.45a1.49,1.49,0,0,1-.81-.81,4.85,4.85,0,0,0,1.75-1.52A4.53,4.53,0,0,0,80.91,55c.55-1.65,5.14-5.17,9.16-3.38,2.9,1.28,9.17,5.55,10.77,5.11,2-.55,4.34,1.25,5.47.13a3,3,0,0,0,.64-1.38A17.65,17.65,0,0,1,109.27,50.79Z"/><path class="cls-2" d="M83,52.72s-3.82-3.41-7.36-.5A21.4,21.4,0,0,0,73.32,54c-.56.56-.83.84-.76,1s1.21.29,5.58-1c-1.92,1.27-2.82,2-2.69,2.31s1,.09,2.69-.44c-.75,1.39-.73,1.76-.6,1.87s1.31-.62,2.17-1.32,1.2-1,1.2-1.41C80.91,53.68,81.56,53.54,83,52.72Z"/><path class="cls-2" d="M94.66,54.07a19.79,19.79,0,0,0,5.7-.71,26,26,0,0,1,2.58-.69,8.89,8.89,0,0,1,1.12-.12c1.26,0,3.55.46,3.88,1.84.25,1.06-.77,2.12-1,2.34a16.26,16.26,0,0,1-6.11,0A16.46,16.46,0,0,1,94.66,54.07Z"/></g><g id="Layer_9" data-name="Layer 9"><path class="cls-6" d="M45.88,62.52H67.74S53.38,49.18,45.88,62.52Z"/><path class="cls-6" d="M52.11,57l4.7-.24a27.21,27.21,0,0,1,5.78-27.62q1.6,10,3.22,19.93a6.54,6.54,0,0,0,3.43.43A6.63,6.63,0,0,0,72.55,48q-2.42-15.44-4.81-30.86c-5.11-1.26-6.91-.69-7.5.22-1.13,1.72,1.89,5,.26,7.71a5,5,0,0,1-1.73,1.52c-2.64,1.87-3.64,4.76-4.86,8.28C52.4,39.25,51.34,47.11,52.11,57Z"/><path class="cls-6" d="M71,63.26s-1.8-5.75,4.07-5.41,12.11,4.27,13.22,4.66S86,64.79,80.81,65.4,72.66,69.09,71,63.26Z"/><path class="cls-6" d="M100.74,94.29C98,94.36,96.25,95,93,96.21c-3.9,1.45-4.76,2.53-5.06,3.53a2.69,2.69,0,0,0,0,1.94s1.08,2.18,17.59.33c0,0,4.24-.7,4.71-3a2.63,2.63,0,0,0-.33-1.73C108.28,94.14,101.6,94.26,100.74,94.29Z"/><path class="cls-6" d="M110,99.67s5.5.26,3.78-3.21S108,95.14,108,95.14,111.85,96.48,110,99.67Z"/><line class="cls-7" x1="85.72" y1="29.02" x2="73.26" y2="33.11"/><line class="cls-7" x1="79.8" y1="19.42" x2="71.04" y2="29.18"/><line class="cls-7" x1="87.07" y1="39.3" x2="74.01" y2="38.01"/></g><g id="table"><path class="cls-8" d="M85.64,102H42.18c-1.37-4.85-2.68-10-3.86-15.55C37,80.25,36,74.34,35.24,68.79l57.73.8Q91,77.87,89.11,86.3,87.33,94.2,85.64,102Z"/><path class="cls-9" d="M93.77,69.44H34a5.21,5.21,0,0,1-1.13-4A4.85,4.85,0,0,1,34,63.06c10.32.06,20.82,0,31.5-.22l12.85-.32c1.42,0,2.45.08,11,.39l4.42.15a6.32,6.32,0,0,1,.8,2.35A6.55,6.55,0,0,1,93.77,69.44Z"/></g><g id="chair"><path class="cls-10" d="M130.09,53.47s11.29-5.58,12.22-2.36,1.85,9.32.93,10.12-5.75,4.66-8.65,4.34S120.77,56.46,125.43,55l4.66-1.49"/><path class="cls-10" d="M136.23,65.4s.71,11.26-1.51,12.71-1.9,1-1.73,0a64.73,64.73,0,0,0-.12-8.36,31,31,0,0,0-1-4.35Z"/><path class="cls-10" d="M112.9,81.48,128.81,78l4.18.16s4.66-.27,4.9.91c.44,2.16,1.12,4.48,0,6.16s-3,2-15.51,2.73c-5.55.33-8.35.46-9.48-1.12S112.38,82.9,112.9,81.48Z"/><path class="cls-11" d="M116.59,87.91v8.84h1.61l1.12-8.84,2.58.8-1,13.66h3.54V87.91h4.34l-.81,9s2.41,2.89,2.9-.48.8-8.52.8-8.52Z"/></g><g id="trouser"><path class="cls-12" d="M134.06,74.46c-.18-6.53-8.61-12.75-13.13-11.14-3.51,1.26-3.6,6.88-6.68,7-1.42.07-1.61-1.12-4.41-2.54-3.47-1.76-8.28-2.5-9.78-.59a2.56,2.56,0,0,0-.5,1.45s-5.63-.48-4.82,6c1.41,11.4-1.9,17.24,1.92,20,.58.42,2.16.87,5.31,1.77,2.44.7,4.5,1.16,5.94,1.44a2.85,2.85,0,0,0,2-.56c1.3-1.11,1.33-3.9-.44-6.67,0,0-3.7-9.65-3.21-10.21,1.4-1.62,5.09,1.28,12.85,1.69,2.82.16,11.43.62,14.11-4.07A6.57,6.57,0,0,0,134.06,74.46Z"/><path class="cls-12" d="M99.56,68.68s9.3-.93,14.69,1.68"/><path class="cls-12" d="M110.57,96.46c8.61,0-2.63-10.12-2.63-10.12"/><path class="cls-12" d="M108.51,87.91s1.81,3.86,1.49,5.46"/></g><g id="shirt"><path class="cls-13" d="M103.17,52.18c-.46-.85.83-1.78,1.74-3.86,1.68-3.82.82-6.6,2.52-7.34a2.49,2.49,0,0,1,1.66,0c.12.19.56.85.8.76.06,0,.13-.09.17-.33,0-.4.14-3.83,2.68-5.37a5.93,5.93,0,0,1,4.07-.63,9.64,9.64,0,0,1,5.12,1.94,11.74,11.74,0,0,1,1.95,2.13c3.84,5.65,6.77,15.86,6.77,15.86,1.4,4.84,1.18,5.07,2.42,8.83a30.37,30.37,0,0,1,1,3.86c.57,3,1,5.45-.05,6.48s-2.1-1.39-7.82-1.39c-2.47,0-8.47-1.93-10.5-2.14s-1.5-.54-1.18-1.93a13.56,13.56,0,0,1,.8-2.12c.93-2.26-3.83-5.23-3.16-7.74.57-2.13,4.56-2,4.87-4.18A3.52,3.52,0,0,0,116,52.39c-1-1.16-2.93-2.46-4.5-1.93-2,.68-1.88,3.79-3.51,3.93-.53,0-.56-.28-2.41-1.11S103.41,52.62,103.17,52.18Z"/></g><g id="hair"><path class="cls-10" d="M111.56,34.07c1.16.37,3.16-2.34,4.18-4.24a17.65,17.65,0,0,0,1.6-11.08c-.16-.91-.31-1.63-.43-2.14a3.26,3.26,0,0,0-.18-.63,3.13,3.13,0,0,0-1.1-1.3l-.8,1.07c.13-.58.27-1.17.4-1.75-.43-2.88-.86-3.59-1.21-3.61s-.41.55-.86.65c-1.15.24-2.72-3-2.89-2.9s.92,2.15.75,2.25-.67-.82-1.46-1.69C108,7,105.76,5.57,105.13,6.07a1.4,1.4,0,0,0,0,1.64c.06.08.13.13.12.15s-2.92-2.38-4.3-1.79c-.09,0-.43.19-.47.45s.52.67.47.77-1.35-.41-1.84-.61c-2.39-1-5.19-1.2-5.45-.61-.07.18.1.42.37.8a2.73,2.73,0,0,0,1.24,1c-1.73-.84-3.14-1-3.43-.59s.38,1.42,1.4,2.41C92,9,90.94,9,90.72,9.36s.25,1.17,1.12,1.89c0,0-4.18,1.39-3.53,1.93s2.64.43,2.64.43-2.82,1.71-1.71,1.93a5.18,5.18,0,0,0,1.71.1s-2.5,2.79,0,1.93l1.11-.75s-.54,2.47,1.5.54l1.82-1a23.8,23.8,0,0,0,6.75,1.29,2.59,2.59,0,0,1,2.14,1.18c1.64,3,2.29,4.69,4.29,5.35,1.28.43,2.29-1.23,3.85-.64a2.78,2.78,0,0,1,1,.64,5.91,5.91,0,0,1,.11,3.43c-.13.44-.7,2.42-2,2.69-.68.14-1.17-.3-1.46,0s0,1.09.22,1.72C110.67,33,111,33.89,111.56,34.07Z"/></g></g></svg>