<svg xmlns="http://www.w3.org/2000/svg" viewBox="0 0 336 520.11"><defs><style>.cls-1{fill:#e6e6e6;}.cls-1,.cls-3,.cls-6,.cls-8{stroke:#000;stroke-miterlimit:10;}.cls-1,.cls-3{stroke-width:6px;}.cls-2{fill:#bb998d;}.cls-3{fill:#fff;}.cls-4,.cls-5,.cls-6,.cls-7{isolation:isolate;}.cls-5,.cls-6{font-size:20px;}.cls-5,.cls-6,.cls-7{font-family:SegoeScript, Segoe Script;}.cls-6{fill:none;}.cls-7{font-size:14px;}.cls-8{font-size:51px;stroke-width:4px;font-family:MyriadPro-Regular, Myriad Pro;letter-spacing:0.02em;}.cls-9{letter-spacing:0em;}.cls-10{letter-spacing:0.02em;}</style></defs><title>sugarbaby</title><g id="Layer_2" data-name="Layer 2"><g id="Layer_1-2" data-name="Layer 1"><g id="cap"><path class="cls-1" d="M165.25,3h43c9.94,0,18,5.82,18,13V52.11c0,7.18-8.06,13-18,13h-43c-9.94,0-18-5.82-18-13V16C147.25,8.82,155.31,3,165.25,3Z"/></g><g id="bottle"><path class="cls-2" d="M26.33,62H266.17c14.54,0,26.33,9.49,26.33,21.2V498.91c0,11.71-11.79,21.2-26.33,21.2H26.33C11.79,520.11,0,510.62,0,498.91V83.2C0,71.49,11.79,62,26.33,62Z"/><path class="cls-3" d="M67.07,62H306.43C321.1,62,333,71.16,333,82.45V487.66c0,11.29-11.9,20.45-26.57,20.45H67.07c-14.67,0-26.57-9.16-26.57-20.45V82.45C40.5,71.16,52.4,62,67.07,62Z"/><g class="cls-4"><text class="cls-4"/><text class="cls-4"/><text class="cls-4"/><text class="cls-4"/><text class="cls-4"/><text class="cls-4"/><text class="cls-4"/><text class="cls-4"/></g><g class="cls-4"><text class="cls-5" transform="translate(72.9 432.79)">Colorless perfume oil </text><text class="cls-6" transform="translate(72.9 432.79)">Colorless perfume oil </text><text class="cls-5" transform="translate(103.3 456.79)">with 0% alcohol</text><text class="cls-6" transform="translate(103.3 456.79)">with 0% alcohol</text></g><text class="cls-7" transform="translate(138.36 89.13)">perfumr Plug</text></g><text class="cls-8" transform="translate(87.25 172.79) scale(0.71 1)">SUGAR BA<tspan class="cls-9" x="226.34" y="0">B</tspan><tspan class="cls-10" x="254.08" y="0">Y</tspan></text></g></g></svg>